<svg xmlns="http://www.w3.org/2000/svg" viewBox="0 0 800 400" preserveAspectRatio="xMidYMid meet">
<path d="M268,378L267,379L266,380L262,380L257,380L254,379L254,379L253,378L258,378L262,379L264,378L265,377L268,378ZM46,377L42,377L39,376L38,375L38,375L36,375L38,374L42,374L44,375L46,376L46,377ZM300,373L302,374L303,376L304,377L304,378L300,378L297,379L292,380L288,380L283,380L280,379L280,378L285,378L287,377L288,376L289,375L290,374L292,373L293,373L296,373L300,373ZM131,363L134,364L136,363L135,364L133,365L130,364L128,364L128,363L131,363ZM121,363L124,364L123,364L120,364L117,363L119,363L121,363ZM180,360L182,360L185,360L186,361L184,361L182,361L179,361L176,361L174,361L173,360L174,359L177,360L180,360ZM248,358L248,359L248,360L247,360L244,361L242,361L239,361L240,360L238,360L235,361L233,360L233,359L236,358L237,358L240,358L240,357L241,356L241,354L242,353L244,353L245,354L246,355L246,356L247,357L248,358ZM0,388L0,388L2,387L6,388L6,388L7,387L8,387L8,387L9,387L9,387L9,387L12,388L15,387L16,387L22,386L24,387L26,387L29,388L35,388L40,389L49,390L55,389L65,390L70,390L76,390L82,389L82,388L74,388L66,387L65,386L59,386L59,385L60,384L61,383L60,382L57,382L55,381L52,380L57,380L62,380L65,381L69,380L73,379L75,378L74,378L71,377L68,376L63,376L59,376L55,376L53,375L50,374L49,373L48,371L49,371L51,372L55,372L58,371L60,372L64,372L67,372L69,371L72,370L75,370L75,369L74,368L75,368L78,367L79,368L83,367L85,367L88,367L91,367L94,366L97,366L100,365L101,365L103,365L106,365L109,366L112,366L115,365L118,365L121,366L124,366L128,366L131,366L134,366L136,365L139,364L142,365L144,365L147,364L148,364L149,365L150,366L153,365L155,366L158,366L161,367L164,367L167,367L170,367L173,367L176,367L178,366L176,366L175,365L172,365L171,364L170,363L170,361L171,362L174,362L177,362L180,362L182,363L183,364L186,364L189,363L192,363L195,363L197,363L200,363L202,361L204,362L206,363L209,362L211,363L214,363L216,364L219,364L221,363L222,362L224,363L227,363L229,364L231,364L234,364L236,364L238,363L241,363L244,362L247,362L249,362L250,361L251,360L251,359L250,358L249,358L248,357L248,356L248,355L248,354L249,353L250,352L250,351L250,350L250,350L251,349L252,348L253,347L255,346L256,346L257,345L259,344L260,344L262,344L264,343L265,342L267,342L268,342L270,341L272,341L273,341L272,342L270,343L269,343L267,343L265,343L264,343L262,344L261,345L261,346L261,346L262,347L260,348L258,348L257,348L256,349L254,350L254,351L255,352L256,353L258,353L260,354L260,355L261,356L262,356L263,357L263,358L264,360L264,361L264,362L265,363L265,364L264,365L262,365L259,366L258,366L257,367L254,368L251,368L248,369L245,369L243,370L240,370L236,370L232,370L228,370L229,371L232,372L235,372L236,373L234,374L230,374L227,374L227,375L227,376L229,377L230,378L232,378L237,379L241,379L244,380L248,381L254,381L259,382L263,382L267,383L270,384L271,385L273,384L277,384L281,383L286,382L289,382L295,382L300,382L305,382L306,381L309,381L315,381L319,380L324,380L328,380L333,379L337,378L335,378L334,377L334,376L330,376L325,377L321,377L320,376L320,374L322,374L325,373L328,373L331,372L334,371L336,370L339,370L342,370L343,370L347,369L350,369L353,369L356,368L358,368L361,367L363,366L365,366L366,365L363,364L364,363L366,362L368,362L370,362L373,361L374,360L376,359L377,358L380,358L381,359L384,359L384,358L385,358L387,358L388,359L390,359L393,358L396,358L398,358L400,359L402,358L404,358L407,358L409,358L412,357L414,357L416,356L417,355L419,356L421,356L423,357L424,357L427,357L428,356L430,356L433,356L434,356L435,356L438,355L440,355L443,355L445,356L448,356L449,356L450,357L453,357L455,357L458,357L460,357L462,356L465,356L467,355L469,355L471,355L473,354L474,353L475,352L478,353L478,353L480,354L483,354L484,354L486,355L488,354L489,354L491,353L493,352L495,352L498,352L500,351L502,351L503,350L505,350L507,350L509,349L511,349L513,349L513,348L515,347L517,347L519,346L521,346L523,346L525,347L527,347L527,348L529,349L530,350L533,350L535,350L536,351L539,351L540,351L542,350L544,350L547,350L549,351L551,351L553,351L555,353L555,354L555,355L552,355L551,356L551,357L554,357L553,358L552,359L551,360L553,360L555,361L558,360L559,359L560,358L561,358L562,357L563,356L564,355L566,355L568,355L570,355L572,354L574,354L574,353L576,352L578,351L580,351L581,350L582,350L584,349L586,350L588,349L590,349L593,349L594,349L596,347L596,348L597,349L599,349L601,349L604,349L606,349L608,349L609,349L611,349L613,350L615,349L617,349L619,349L622,349L623,349L624,348L626,347L628,346L630,346L632,347L633,347L636,349L638,349L640,349L643,348L645,348L647,348L648,347L651,347L652,346L654,347L655,348L657,348L659,348L661,349L664,349L666,350L669,349L670,349L672,348L674,348L676,348L678,348L680,348L682,348L684,348L686,348L688,348L691,348L693,348L695,348L698,347L700,347L700,346L700,345L702,346L702,347L703,348L704,348L706,349L708,349L711,349L713,348L716,348L718,348L721,348L723,349L725,349L724,350L726,351L728,351L731,352L734,352L737,353L739,353L741,353L743,352L745,353L746,354L748,354L751,354L754,355L755,356L757,356L759,357L762,357L764,357L766,357L769,357L772,357L774,358L777,358L779,359L780,359L780,360L779,361L778,362L777,363L776,364L773,364L772,365L769,365L768,366L767,367L765,368L764,369L764,369L763,370L763,371L765,372L765,373L766,374L770,374L771,375L767,375L764,376L760,376L758,377L757,378L756,379L755,380L758,381L759,382L761,382L764,383L767,384L770,384L775,385L776,386L783,387L783,387L785,388L791,387L796,388L0,388ZM249,320L252,321L255,322L254,323L252,323L251,322L250,323L249,324L246,323L244,323L242,322L239,321L237,320L234,317L236,318L239,319L242,320L243,319L244,318L246,317L248,317L248,318L249,320ZM270,314L272,315L271,315L268,316L267,315L265,316L264,315L267,314L269,314L270,314ZM556,310L553,311L553,309L553,308L553,308L555,309L557,309L557,310L556,310ZM723,291L725,291L726,291L728,291L730,291L730,294L729,294L729,296L728,295L726,297L726,297L725,297L723,295L723,293L722,292L722,290L723,291ZM784,291L785,292L787,291L787,292L787,293L786,294L785,296L784,296L785,298L783,298L781,298L780,300L779,302L777,303L776,304L774,304L773,303L770,303L770,302L771,300L774,298L775,298L777,297L779,296L780,294L781,293L782,292L782,291L784,290L784,291ZM788,280L790,283L790,281L791,282L791,284L793,284L794,284L796,284L797,284L796,286L796,287L794,287L793,288L793,289L793,289L792,290L791,292L789,293L789,292L788,292L789,290L789,289L786,288L786,287L788,286L788,284L788,283L787,282L787,281L786,280L785,278L784,277L784,277L786,278L787,278L788,280ZM771,249L770,250L769,249L768,248L766,247L765,245L764,245L766,245L767,246L768,246L768,247L770,248L771,249ZM796,238L797,239L797,240L795,241L794,240L794,239L795,239L796,239L796,238ZM0,237L799,237L797,238L797,237L798,236L799,236L0,236L0,236L0,236L0,237L0,237ZM771,233L772,235L771,235L771,235L770,234L770,232L771,233ZM511,230L512,233L512,234L512,235L512,236L511,234L510,235L511,237L511,238L510,238L510,240L509,242L508,246L506,250L506,253L505,255L503,256L501,257L500,256L498,256L497,254L497,252L496,251L496,249L496,247L498,247L498,246L499,245L499,243L498,242L498,241L498,239L498,237L499,236L500,236L501,236L502,235L503,235L504,234L506,232L507,231L506,230L507,231L508,229L509,228L509,227L510,228L511,229L511,230ZM719,231L720,232L721,232L722,232L723,233L723,234L723,236L724,237L724,238L725,240L725,241L725,242L728,243L729,244L731,245L730,246L732,247L733,250L734,249L734,250L735,250L735,252L737,254L738,254L740,256L740,258L740,259L740,261L741,262L741,264L741,266L740,267L740,269L740,270L739,272L737,273L736,275L736,276L735,278L734,279L734,281L733,282L733,283L732,284L730,284L728,285L726,286L725,287L723,286L722,285L722,284L721,285L719,286L717,286L716,285L715,285L712,284L711,283L711,281L710,280L709,279L707,279L708,278L707,276L706,278L704,278L705,277L706,276L706,275L706,273L704,275L703,276L702,278L700,277L700,275L699,274L698,273L698,272L696,271L694,271L692,270L688,270L685,271L682,272L680,272L678,273L676,273L676,274L675,275L673,275L672,276L670,275L668,275L666,276L665,277L664,277L663,277L662,278L661,278L659,278L657,276L656,276L656,275L657,274L657,274L657,273L657,272L657,270L656,268L656,267L656,266L655,264L655,263L654,262L653,261L652,259L652,258L653,259L652,257L653,258L654,258L654,257L653,256L652,255L652,254L652,253L653,252L653,251L653,250L654,248L654,250L655,248L657,248L658,247L659,246L660,246L661,246L663,245L664,245L664,244L665,244L666,244L669,244L670,243L670,242L672,240L672,240L672,238L673,236L674,238L675,238L674,237L675,236L676,236L676,235L678,234L678,233L679,232L679,232L680,232L680,231L681,231L682,231L684,232L685,233L687,233L688,233L688,232L689,230L690,230L689,229L690,228L692,227L693,227L695,227L695,226L693,225L694,225L696,225L697,226L699,227L699,226L701,227L702,227L703,227L703,226L704,227L704,229L703,230L702,230L702,230L702,232L701,233L701,233L703,235L705,235L706,236L707,237L708,237L709,238L710,239L712,239L713,239L714,237L714,236L714,235L715,233L715,232L715,232L714,230L715,229L715,228L715,228L715,226L716,225L716,224L717,224L717,225L718,226L718,226L718,227L719,228L719,230L719,231ZM760,223L761,224L759,224L758,223L760,223L760,223ZM668,223L667,223L664,221L666,221L668,222L668,222L668,223ZM757,222L757,222L755,222L755,221L755,220L756,221L757,221L757,222ZM759,221L759,222L757,220L757,218L758,218L758,220L759,221ZM676,222L675,223L674,223L675,222L676,221L678,220L678,219L680,219L681,219L682,218L683,219L682,219L680,220L678,221L676,222ZM662,218L663,219L664,218L665,219L662,220L661,220L659,220L660,219L661,219L662,218ZM673,218L673,219L670,220L666,220L666,219L668,218L670,219L671,219L673,218ZM755,218L755,219L754,218L752,217L752,216L752,216L753,217L755,218L755,218ZM750,216L750,216L749,216L748,215L748,215L749,216L750,216ZM641,215L646,215L646,214L650,215L651,217L654,217L657,219L655,219L652,219L650,219L648,218L646,218L643,217L642,217L641,217L637,216L636,215L634,215L636,213L638,213L640,214L641,214L641,215ZM699,214L698,215L698,214L698,213L699,212L699,213L699,214ZM746,215L746,215L745,214L744,213L743,211L744,211L744,212L745,212L746,214L747,214L746,215ZM738,212L737,212L736,213L735,214L734,214L733,214L731,213L730,213L730,212L732,212L733,212L733,211L734,211L734,212L735,212L736,211L737,211L737,209L738,209L738,210L738,211L738,212ZM683,208L682,208L680,208L680,207L682,207L683,208ZM690,207L691,209L689,208L687,208L686,208L684,208L685,206L688,206L690,207ZM740,210L740,211L739,209L739,208L738,208L736,207L735,206L735,206L737,206L737,207L738,207L739,208L740,209L740,210ZM698,203L699,206L701,208L703,205L705,204L707,204L709,205L711,205L713,206L717,207L721,209L723,210L724,211L724,212L728,214L729,215L727,215L727,216L729,218L730,220L732,220L732,221L733,222L733,222L735,223L735,224L733,224L733,223L731,223L729,222L727,221L726,220L725,218L722,217L720,218L718,218L719,220L717,221L716,220L713,220L711,218L709,218L709,219L706,219L707,217L708,216L708,214L706,212L702,210L700,210L697,208L696,209L696,209L695,208L695,207L693,206L696,206L697,206L697,205L694,205L693,204L691,203L690,202L693,202L694,201L698,202L698,203ZM678,197L676,199L675,200L673,199L669,199L667,200L667,201L669,203L670,202L674,201L674,202L673,202L672,203L670,204L672,207L672,208L674,210L674,212L672,212L672,212L673,210L670,211L670,210L670,209L669,208L669,206L667,206L668,209L668,212L666,213L665,212L666,210L666,208L665,208L664,206L665,205L665,203L666,200L667,199L669,197L670,198L673,198L676,198L678,196L678,197ZM686,198L686,199L685,199L684,201L685,202L685,202L684,201L683,198L684,196L684,195L684,196L686,197L686,198ZM635,213L633,213L631,211L628,209L627,208L625,206L624,205L622,201L621,200L620,198L619,196L617,194L616,193L614,191L612,189L612,188L613,188L617,188L619,190L620,192L622,193L624,195L626,195L628,197L629,199L631,200L630,202L631,202L632,202L632,204L633,205L635,205L636,207L635,210L635,213ZM662,196L664,198L662,198L661,200L661,202L659,203L659,206L658,209L658,208L655,209L654,208L653,208L652,207L649,208L648,207L647,207L645,206L645,204L644,203L642,201L642,199L642,197L644,196L645,196L647,196L648,194L648,194L651,193L653,191L654,190L655,189L657,188L658,186L659,185L660,185L661,186L662,187L663,187L665,188L665,189L663,189L664,190L662,191L661,193L662,195L662,196ZM681,181L681,183L681,184L680,186L680,184L679,185L679,187L679,188L676,186L675,185L676,184L675,183L674,184L673,183L671,185L671,184L672,182L673,182L674,181L675,182L677,181L677,180L679,180L679,178L680,179L681,180L681,181ZM580,186L578,187L578,185L577,182L578,178L580,179L581,181L582,183L581,186L580,186ZM265,178L263,178L262,178L263,177L263,176L264,176L265,176L265,178ZM676,177L675,178L674,179L673,180L672,178L672,178L673,177L673,176L674,176L674,177L676,175L676,177ZM663,179L660,181L662,180L663,178L664,177L666,175L666,176L664,178L663,179ZM671,174L672,174L674,174L674,175L672,176L671,177L671,176L671,175L671,174ZM679,173L680,176L678,175L678,176L678,177L677,178L677,176L677,176L676,174L678,175L678,174L676,172L678,172L679,173ZM670,171L670,173L668,172L667,170L669,170L670,171ZM670,159L671,160L672,159L672,160L672,160L672,162L672,164L670,165L670,166L670,168L672,168L673,168L675,169L675,171L676,171L676,172L674,171L673,170L673,171L671,169L669,170L668,169L668,168L669,168L668,167L668,168L667,167L666,166L666,164L667,164L668,161L668,159L670,159ZM254,160L254,160L252,160L251,160L251,159L251,159L253,159L254,159L254,160ZM229,160L228,161L227,160L226,160L226,159L227,159L228,159L229,159L230,160L231,160L229,160ZM239,156L241,156L241,156L243,156L244,156L245,156L245,157L246,157L246,158L247,158L248,159L247,160L246,159L245,159L244,159L244,160L243,160L243,159L242,159L241,161L241,160L241,160L239,160L238,160L237,160L236,160L234,159L235,158L237,159L238,159L239,158L238,158L238,157L237,156L237,156L239,156ZM645,158L643,160L642,159L641,157L642,156L645,155L646,155L647,156L646,157L645,158ZM54,158L54,158L54,158L54,157L53,156L53,156L54,156L54,155L54,155L54,155L55,155L55,156L55,156L56,157L56,157L55,157L54,158ZM53,154L52,154L52,154L52,154L52,154L52,153L53,154L53,154L53,154ZM50,153L50,153L49,153L49,153L48,152L48,152L49,152L49,152L50,153ZM46,151L46,151L45,151L45,151L45,151L46,151L46,151ZM223,149L224,150L226,150L227,150L229,152L230,153L231,153L232,153L232,154L234,154L235,155L235,155L233,156L232,156L230,156L227,156L229,155L228,154L226,154L226,153L225,152L224,152L222,152L221,151L218,151L217,150L218,150L216,150L214,151L214,151L213,151L212,152L211,151L212,151L213,150L214,149L215,149L217,149L217,148L219,149L221,149L223,149ZM228,147L227,147L227,146L226,145L226,144L227,144L228,146L228,147ZM669,149L668,151L667,149L667,148L668,146L670,144L671,144L671,146L669,149ZM227,141L225,141L224,140L226,140L227,140L227,141ZM229,141L228,142L228,142L228,141L227,140L227,140L229,141ZM699,124L700,125L698,126L697,126L696,126L696,127L694,127L694,126L695,124L697,125L698,124L699,124ZM477,121L475,122L476,122L476,122L473,123L472,123L472,122L473,122L473,122L473,121L475,121L477,121ZM453,121L454,121L456,121L457,121L457,122L458,122L458,122L455,122L455,122L452,122L453,121ZM434,115L434,117L434,118L434,119L432,118L431,118L428,116L428,115L430,116L433,115L434,115ZM420,108L422,110L422,113L420,113L420,114L419,113L419,110L418,109L419,109L420,108ZM713,118L712,119L713,120L712,122L709,123L705,123L702,126L700,125L700,123L696,124L694,125L691,125L693,126L692,130L690,131L689,130L690,128L688,128L688,126L690,125L691,124L693,123L695,121L699,121L702,121L704,117L705,118L709,116L710,115L711,112L711,110L712,108L714,108L715,111L715,113L713,115L713,118ZM421,106L420,108L420,108L419,106L419,105L421,104L421,106ZM720,102L721,102L723,101L723,104L720,104L718,107L715,105L714,108L711,108L711,105L712,104L714,104L715,100L716,99L718,101L720,102ZM258,97L260,97L262,97L261,98L260,98L258,97L257,96L258,96L258,97ZM263,91L262,91L259,90L257,89L257,89L260,90L263,90L263,91ZM126,92L124,92L121,92L120,91L118,90L118,89L115,89L115,88L115,87L117,88L118,88L120,88L121,89L122,90L125,91L126,92ZM275,87L274,89L275,89L277,89L276,90L278,90L279,90L281,91L280,92L282,92L282,93L283,94L282,96L281,96L280,96L280,94L280,94L277,96L276,96L277,95L275,94L273,94L268,94L268,94L269,93L268,92L270,91L272,87L274,86L276,85L277,85L276,86L275,87ZM105,80L107,80L107,82L108,84L108,84L106,83L105,82L104,81L104,80L104,80L105,80ZM719,87L722,91L718,90L717,94L719,96L719,98L717,96L716,98L715,96L716,94L715,91L716,90L716,87L715,85L715,82L717,80L716,80L717,79L718,81L718,83L718,85L719,87ZM385,84L381,85L378,85L380,82L378,80L382,78L383,78L385,77L387,79L386,80L387,82L385,84ZM428,76L427,78L424,77L424,76L428,75L428,76ZM60,73L58,74L57,73L56,72L58,72L60,71L61,71L62,72L60,73ZM393,70L391,72L393,72L396,72L395,74L393,76L395,76L398,79L399,79L400,82L401,82L404,83L404,84L402,85L403,86L401,87L398,87L394,88L393,87L392,88L390,88L388,89L387,88L390,86L392,86L389,85L388,84L391,84L389,83L390,81L393,81L394,80L392,79L389,78L389,78L390,77L389,76L388,77L388,75L386,74L387,72L389,70L391,70L393,70ZM32,67L31,67L29,67L28,66L30,66L32,66L32,67ZM224,62L223,63L222,63L221,62L222,62L222,61L223,61L224,62ZM218,61L215,62L214,62L213,61L215,60L218,60L218,61ZM18,58L20,59L21,58L23,59L25,59L25,60L23,60L22,60L21,59L19,59L18,59L18,58ZM211,54L211,55L212,55L214,55L216,56L219,57L219,58L220,58L222,58L220,59L217,59L215,58L213,59L210,60L209,59L206,59L208,58L208,56L209,54L211,54ZM368,52L367,54L370,55L367,57L360,58L358,59L356,59L349,58L352,57L347,56L351,55L351,55L346,54L347,53L351,52L354,54L358,53L360,53L364,52L368,52ZM231,51L229,51L228,50L229,49L231,48L233,49L233,50L233,50L231,51ZM0,47L5,48L11,51L11,52L13,53L12,51L18,51L22,53L20,54L17,55L16,57L16,57L14,57L12,56L9,56L8,55L6,54L4,55L2,54L3,53L0,54L1,55L0,56L0,56L800,56L797,57L794,56L796,58L798,59L799,60L799,61L798,62L794,61L788,63L786,63L783,65L779,66L778,67L775,65L770,67L768,66L766,67L763,67L763,68L760,71L760,72L763,72L762,75L760,75L759,77L760,78L756,79L756,82L752,82L752,85L748,87L748,85L747,82L745,77L746,74L748,72L748,72L752,71L756,68L760,66L764,64L766,61L763,61L762,63L756,66L754,63L748,64L743,67L744,69L740,69L736,69L736,68L733,67L730,68L723,68L716,69L709,73L700,78L704,79L705,80L707,80L708,79L711,80L714,82L714,84L712,86L712,89L711,92L708,96L707,97L704,100L701,102L700,104L697,105L695,105L694,104L691,105L691,106L690,106L689,107L688,108L688,109L687,110L687,110L686,111L684,111L683,112L683,113L683,113L684,113L685,114L687,117L688,118L688,121L687,122L685,122L683,123L681,124L681,122L681,121L680,118L682,118L680,116L679,116L679,116L678,116L678,116L678,116L677,115L678,114L678,114L678,114L679,112L678,112L677,112L676,111L673,112L671,113L669,114L670,112L670,112L672,110L670,109L668,110L666,111L664,113L662,113L661,114L662,115L664,116L664,117L666,117L668,116L670,117L672,117L672,118L669,119L668,120L666,121L665,122L667,124L668,126L669,128L671,130L671,131L670,132L670,133L671,134L671,136L670,137L669,138L668,140L666,143L664,145L661,148L658,149L655,150L654,151L653,150L652,151L648,152L646,152L645,155L644,155L644,153L644,152L641,152L640,152L637,154L635,156L635,158L636,160L639,163L641,164L642,166L643,170L643,174L641,176L638,177L636,179L634,181L633,180L634,178L632,177L630,176L629,175L628,173L626,172L624,172L624,170L622,170L622,173L621,176L620,178L620,180L622,180L623,182L623,184L624,185L626,185L627,186L628,186L629,188L630,189L630,191L630,192L630,192L630,194L631,194L632,196L632,197L630,197L628,196L625,194L625,193L624,191L624,189L623,188L623,187L622,186L622,185L621,184L620,182L619,181L618,183L618,181L618,180L619,178L619,176L620,175L619,173L619,171L618,170L617,167L617,164L616,162L614,164L612,165L611,165L609,164L610,162L610,160L608,157L608,156L607,156L605,154L605,153L604,152L604,151L603,149L601,149L601,150L601,152L600,151L599,151L599,151L598,151L598,152L596,152L593,152L593,154L592,155L589,157L586,159L585,161L583,162L583,163L582,164L580,165L578,165L578,166L578,169L578,171L578,173L578,177L576,177L575,179L576,180L574,180L573,182L572,182L570,180L569,177L568,175L568,174L566,172L566,169L565,168L563,164L562,160L562,157L562,155L561,152L558,154L557,154L554,151L555,150L554,149L552,147L550,147L549,145L548,144L543,144L540,144L537,144L532,144L530,143L528,143L527,140L526,140L524,140L522,141L519,140L517,139L514,138L513,136L511,133L510,133L509,133L508,134L507,133L507,134L507,135L508,137L508,138L510,139L510,140L512,141L512,142L511,142L512,143L512,144L513,144L513,145L513,143L513,142L514,142L515,143L515,144L514,145L515,146L515,146L515,147L517,146L519,146L520,146L522,145L523,144L525,142L525,141L526,142L525,142L525,143L525,145L526,146L528,147L529,147L530,148L532,149L532,150L533,150L533,150L532,152L532,152L531,153L530,155L529,154L528,155L528,156L528,158L528,158L527,158L526,159L526,160L525,160L524,160L523,161L523,162L522,162L520,162L519,163L518,163L516,164L516,165L516,165L514,166L510,167L508,169L507,169L506,169L505,170L504,170L502,170L501,170L501,171L500,171L500,172L499,172L498,172L497,172L496,171L496,169L496,169L495,167L495,166L495,166L495,165L495,165L495,164L495,163L494,162L494,161L493,160L492,158L491,157L489,155L488,155L487,153L487,151L487,150L486,147L484,146L483,146L483,145L483,144L482,143L481,143L481,141L479,139L478,138L477,138L477,136L477,136L478,135L478,134L477,135L476,137L476,138L475,139L475,138L474,137L472,134L472,134L473,136L474,138L476,142L477,143L477,144L479,147L479,147L479,149L482,151L482,151L483,153L482,154L482,156L483,159L484,159L485,160L487,163L487,165L488,166L492,168L493,169L494,170L495,171L496,172L496,172L496,173L495,174L496,174L497,175L497,176L498,177L499,177L501,176L504,176L506,175L507,175L508,175L509,175L510,175L510,174L512,174L513,173L514,173L514,174L513,175L513,176L513,177L512,180L511,182L510,185L508,188L506,191L504,194L501,196L498,198L496,199L493,202L493,203L492,204L491,205L490,206L490,206L489,207L488,208L488,210L487,210L486,213L486,214L488,215L488,216L487,217L487,218L487,219L488,220L489,222L490,223L490,224L490,226L490,228L490,232L491,233L490,234L489,236L488,237L486,238L483,239L481,242L480,242L478,244L477,244L477,246L478,247L479,248L479,249L479,249L479,251L479,252L479,253L479,254L478,254L476,255L473,256L472,257L473,258L473,258L473,259L472,261L472,263L472,264L470,265L470,265L469,266L468,268L467,269L464,272L463,273L461,274L459,275L458,275L457,275L456,275L455,276L452,275L451,275L450,275L448,276L446,276L445,277L444,277L443,277L442,276L441,276L441,276L440,275L441,274L440,272L440,272L440,270L439,268L438,266L438,266L436,264L435,262L434,260L433,258L433,256L432,253L432,250L432,249L431,248L430,246L428,244L428,242L426,240L426,238L426,237L426,235L427,233L427,232L428,230L428,229L430,228L430,227L430,225L430,224L430,223L429,222L429,220L429,220L429,219L429,217L428,215L427,214L427,214L427,213L426,211L425,209L422,207L421,205L420,202L420,202L420,201L421,199L421,198L421,197L421,195L422,193L421,192L420,191L419,190L419,190L419,189L417,190L416,190L415,191L413,190L412,189L411,188L410,186L408,186L406,186L404,186L402,187L399,188L398,189L396,190L394,189L393,189L391,188L390,188L387,189L386,190L383,190L383,190L382,190L380,189L378,188L376,186L375,185L374,185L372,184L371,183L371,182L371,180L370,179L369,178L368,178L368,177L367,176L367,176L366,176L365,174L364,174L364,174L364,173L363,173L363,172L363,171L363,170L362,168L361,167L362,167L363,165L363,164L363,163L364,162L364,160L364,158L364,156L364,155L363,154L362,153L362,152L362,151L363,151L364,150L364,149L364,147L366,146L366,146L367,144L367,143L368,142L369,141L371,139L372,138L374,137L376,136L377,135L379,134L378,131L379,129L379,128L381,126L383,125L385,124L386,122L387,120L388,120L390,122L392,121L394,122L395,122L397,121L400,120L401,119L403,119L407,118L411,118L412,118L414,118L416,118L417,118L419,118L421,117L423,117L423,118L424,118L425,118L424,119L424,120L424,121L424,123L423,124L423,125L424,125L425,126L426,126L428,127L429,127L431,127L434,128L435,130L437,131L440,132L442,133L444,132L445,131L444,129L445,128L446,127L448,127L451,128L452,128L452,128L453,129L455,129L456,130L459,130L461,130L463,131L464,131L466,131L467,130L469,130L470,130L471,131L472,130L473,131L475,131L476,131L477,130L477,130L477,129L478,127L478,126L478,126L479,125L480,123L480,123L480,121L480,120L480,119L480,119L479,119L477,118L476,120L472,120L470,119L468,118L468,119L466,120L464,118L461,118L460,116L458,115L460,113L458,112L461,110L464,110L465,108L469,109L472,107L474,107L478,107L482,108L485,109L488,109L490,109L492,108L493,107L492,105L491,104L490,104L489,104L486,102L483,101L482,100L483,99L485,97L484,96L487,96L487,95L485,95L483,96L482,96L480,96L478,97L478,99L479,99L481,99L481,100L478,100L475,101L474,101L474,100L472,99L472,99L475,98L474,98L470,97L470,96L468,96L468,98L466,99L466,100L465,100L464,100L464,103L462,104L462,105L462,107L462,108L464,108L464,109L461,109L460,110L459,111L458,110L458,109L456,109L455,109L453,110L454,111L453,111L452,111L451,110L450,110L451,112L452,113L451,113L452,114L453,115L453,116L451,116L452,117L451,117L452,119L450,119L448,118L447,116L447,115L446,114L445,113L445,112L444,112L444,111L443,111L443,110L443,108L443,107L443,107L443,107L442,106L441,106L439,105L438,104L436,103L434,102L434,102L433,101L433,100L432,100L431,100L430,100L430,99L430,99L431,99L429,98L427,99L428,100L427,101L428,102L430,103L431,105L434,107L435,107L436,107L435,108L437,108L439,109L441,110L441,111L441,112L439,110L438,110L437,112L438,112L438,114L437,114L436,116L435,116L435,115L435,114L436,113L435,112L434,111L433,111L433,110L431,109L430,108L429,108L427,107L425,106L423,105L423,102L422,102L420,101L419,102L417,103L416,103L414,104L410,104L407,104L407,106L407,107L405,108L402,109L402,110L400,111L399,113L400,114L399,115L398,116L397,117L395,118L392,118L390,118L389,119L388,120L387,120L386,119L386,118L383,118L382,118L381,118L380,118L381,116L380,115L379,115L379,114L379,112L380,112L380,111L380,109L380,108L380,108L380,107L380,105L379,104L382,103L385,103L388,103L390,104L392,103L396,104L397,102L397,98L395,95L393,94L390,93L390,92L393,91L396,92L396,89L398,90L403,89L404,87L406,86L407,86L408,85L410,82L414,81L415,81L416,81L418,81L418,81L420,80L419,79L419,78L418,77L418,74L418,74L419,73L421,73L422,72L424,72L423,73L423,74L423,74L424,74L424,75L423,75L421,77L422,78L422,79L424,79L424,80L427,80L428,79L430,80L431,80L433,80L436,79L439,78L441,78L442,79L444,79L444,78L447,77L447,76L447,74L448,72L450,72L452,73L454,73L454,72L454,70L454,70L452,70L452,68L455,68L458,68L460,68L462,68L465,67L462,66L458,66L454,66L451,67L450,66L447,65L448,63L447,61L448,60L450,58L455,56L456,55L456,54L453,53L449,54L447,56L448,57L444,59L440,61L438,64L440,65L442,66L440,69L437,70L436,73L435,75L433,75L431,77L429,77L428,75L426,72L424,69L423,68L419,70L416,71L413,70L412,67L411,62L413,61L419,59L423,57L428,54L433,49L436,48L443,45L448,44L451,44L454,42L459,42L463,42L470,43L467,44L469,45L471,45L475,46L481,46L490,49L491,50L491,52L489,53L485,53L475,52L474,52L477,54L478,57L480,58L482,58L482,57L481,56L483,55L488,57L490,56L488,54L494,52L496,52L498,53L499,52L497,50L498,49L497,48L503,48L504,50L501,50L501,51L503,52L506,51L507,50L512,49L519,47L521,47L519,48L522,49L523,48L527,48L531,47L533,48L536,47L533,46L535,45L541,45L544,46L552,49L554,48L552,46L551,46L549,46L550,45L548,43L548,42L552,40L554,38L555,38L561,38L562,40L560,41L561,42L562,44L561,47L564,48L563,50L558,53L561,53L562,52L564,52L565,50L567,49L566,48L566,47L564,46L564,45L565,43L562,41L566,40L566,38L567,38L568,39L567,42L570,42L569,40L572,39L577,39L581,41L579,39L579,36L583,36L588,36L593,36L591,34L594,33L596,33L601,32L606,32L607,31L613,31L615,31L620,30L624,30L624,29L627,28L632,27L636,28L633,29L638,29L638,30L640,30L647,30L652,31L654,31L653,33L651,33L645,34L643,35L646,36L649,36L651,36L652,37L653,36L657,36L664,36L664,38L674,38L674,36L679,36L682,36L686,38L687,39L686,40L688,42L692,43L694,40L698,41L701,41L706,42L707,41L711,41L709,39L712,38L732,40L734,41L740,43L749,42L753,42L755,43L755,45L758,46L761,45L765,45L769,46L773,45L777,47L780,47L778,45L779,44L786,45L790,45L797,46L0,47ZM509,108L510,110L511,110L512,110L510,111L510,112L509,113L509,114L509,115L509,116L511,117L513,118L516,118L520,118L520,117L519,116L520,113L518,113L519,111L517,111L518,109L520,110L522,109L520,108L519,106L518,107L517,109L517,107L516,107L517,106L517,105L514,104L513,102L512,102L512,101L514,101L514,100L516,99L518,99L518,97L518,96L516,96L514,95L511,96L509,97L508,98L506,99L504,101L506,103L506,104L508,107L509,108ZM187,46L186,47L183,46L181,47L178,46L180,45L182,44L184,45L185,45L186,46L187,46ZM0,41L0,41L2,41L5,42L5,42L3,42L0,43L0,41ZM199,46L199,48L202,46L204,48L204,49L206,51L208,49L210,47L210,45L213,45L216,45L219,46L220,47L218,49L219,50L219,51L215,52L212,53L209,52L209,53L207,55L206,56L203,58L200,58L198,59L198,60L196,60L193,62L191,65L190,66L190,69L193,69L194,72L195,73L198,73L202,74L204,74L206,76L209,76L211,77L215,77L217,77L217,79L218,82L219,84L222,86L224,86L225,83L224,80L223,78L226,78L229,76L230,74L230,73L228,71L226,69L228,67L227,65L226,62L228,61L232,62L234,62L236,61L238,62L241,63L241,64L245,64L245,66L246,69L248,69L250,71L253,69L255,67L256,66L258,68L261,71L264,73L263,75L266,76L268,77L271,78L273,79L274,80L275,81L276,82L276,84L275,85L273,86L269,86L267,88L263,89L258,88L255,88L252,88L251,90L248,91L244,94L242,96L244,96L247,93L252,91L255,91L257,92L255,93L256,96L257,97L260,98L263,98L266,96L266,97L267,98L264,99L259,101L257,102L255,103L253,103L253,101L257,99L253,99L251,100L251,100L249,102L246,102L244,103L243,104L243,105L243,106L243,107L244,107L244,106L245,107L244,108L243,108L242,108L240,108L239,108L238,108L236,109L240,109L240,109L237,110L236,110L236,109L235,110L236,110L235,112L234,114L233,113L233,113L232,112L233,113L233,114L233,115L232,116L231,117L231,117L232,116L231,115L230,113L230,114L230,115L229,115L230,116L230,118L231,118L231,119L232,121L230,123L228,123L226,125L225,125L224,126L224,126L222,128L220,129L219,130L219,132L219,133L220,135L221,137L221,138L222,140L222,142L222,143L221,144L221,144L220,144L219,143L218,142L217,141L216,139L216,138L216,137L216,135L214,134L213,133L211,134L210,134L209,133L208,132L206,133L204,132L202,133L201,133L201,134L201,134L202,135L201,135L200,135L200,135L198,135L196,134L194,134L193,134L191,134L190,134L188,136L185,137L184,138L184,139L184,141L184,142L184,142L184,142L184,142L183,144L183,146L183,149L182,150L183,151L184,152L184,154L186,156L186,157L187,158L189,159L190,160L192,159L194,159L196,158L197,158L198,157L199,156L199,154L199,153L201,153L203,152L205,152L207,152L207,153L207,154L206,155L205,156L206,157L205,158L205,159L204,159L204,159L204,159L204,159L204,160L204,161L204,161L204,162L204,162L204,163L203,164L203,164L202,165L203,165L203,165L204,165L204,165L205,165L205,165L206,165L206,165L207,165L208,165L209,165L209,164L210,164L210,165L211,165L211,164L212,165L212,165L213,165L214,166L215,166L215,167L215,167L215,167L215,168L215,169L214,170L214,171L214,171L214,172L214,173L214,174L214,174L214,175L214,175L214,176L215,177L216,178L217,179L217,180L217,180L218,180L218,180L219,180L220,180L221,180L222,179L223,179L224,179L224,179L226,179L226,180L227,180L228,181L229,181L231,179L232,179L232,178L232,176L234,175L235,175L235,175L237,175L239,174L240,173L240,172L241,172L242,173L242,174L241,174L240,175L241,176L241,177L240,178L241,180L242,180L242,178L241,177L241,176L244,175L244,174L245,173L245,174L247,175L248,176L248,176L250,177L253,176L254,177L256,178L257,177L257,176L260,176L262,176L261,177L261,178L263,178L265,179L265,181L266,181L267,181L269,182L270,184L270,185L271,185L272,186L273,187L276,187L276,187L278,187L280,187L281,188L282,188L285,190L285,191L286,191L286,192L288,196L289,196L289,198L287,200L288,200L292,200L292,203L294,201L296,202L300,203L301,205L301,206L304,205L308,206L311,206L314,208L317,211L319,211L321,211L322,212L322,215L323,216L322,220L321,221L318,224L316,227L315,229L314,229L313,231L314,235L313,238L313,240L312,241L312,244L309,246L309,249L307,250L307,251L304,251L301,252L299,253L297,254L294,255L292,258L292,259L292,260L292,263L291,264L290,265L287,269L285,271L284,272L283,274L281,275L280,276L278,278L276,277L275,278L273,276L272,277L270,275L270,276L273,278L272,280L274,281L274,282L272,285L268,286L264,286L262,286L262,288L262,289L262,290L261,291L258,292L256,291L255,291L256,294L257,294L258,293L259,295L257,295L255,297L255,299L254,300L252,300L250,301L250,303L252,304L254,305L253,307L251,308L249,311L247,312L246,313L247,315L249,316L248,316L246,316L245,317L243,318L242,320L241,320L239,319L236,317L234,316L233,315L233,313L232,312L232,308L233,306L235,304L232,304L234,302L235,298L237,299L238,294L237,294L236,296L235,296L236,293L236,289L237,287L237,285L236,283L237,282L239,279L240,275L241,272L241,269L241,267L241,264L242,261L243,257L244,252L244,248L244,244L244,241L241,240L241,239L237,236L233,234L231,233L230,231L230,230L229,227L226,223L224,219L224,218L223,216L221,214L219,214L220,213L219,210L220,209L222,208L223,206L222,205L221,206L220,205L220,204L220,202L221,202L221,201L222,199L222,198L223,198L225,197L224,196L225,196L225,195L226,194L227,194L228,193L229,191L228,191L228,190L228,188L228,187L228,185L227,184L226,183L226,182L226,182L226,181L225,181L224,180L223,180L223,181L222,182L221,182L221,182L222,183L222,184L221,184L220,184L220,183L220,183L219,183L218,182L218,182L217,182L216,182L216,182L216,182L214,181L214,181L214,180L214,180L214,179L213,179L212,179L212,178L211,178L211,178L211,179L210,178L210,178L209,178L209,177L210,176L209,176L210,175L209,175L208,174L207,173L206,172L205,171L205,171L206,171L206,171L206,170L205,170L205,171L203,171L203,170L202,170L200,170L200,170L199,169L197,169L196,169L195,168L192,165L191,165L190,164L188,164L186,165L185,165L184,165L182,164L180,163L178,163L176,162L174,161L174,160L172,160L170,159L169,158L167,157L166,156L165,155L166,154L166,154L166,153L166,152L165,151L165,150L164,149L162,147L160,145L159,144L157,143L157,143L157,141L156,141L155,140L154,138L153,138L152,137L151,136L150,135L149,133L148,132L149,131L147,130L146,130L145,129L145,130L145,131L145,133L146,134L148,135L148,136L148,136L149,137L149,137L149,138L150,139L151,140L152,141L153,143L153,144L154,145L154,146L155,146L156,147L157,148L157,148L156,149L156,149L155,148L153,147L152,146L151,145L151,143L150,142L149,142L148,140L148,141L147,140L146,140L144,138L144,138L145,138L146,138L146,136L145,135L143,134L142,133L142,132L141,130L140,128L139,127L138,125L137,125L137,124L135,124L135,124L132,123L132,123L132,122L130,120L128,117L128,116L127,115L125,113L125,112L124,110L124,109L124,107L123,105L124,103L125,99L124,96L124,94L123,93L123,92L126,93L128,95L128,95L128,93L127,91L127,91L122,89L121,88L117,87L116,85L116,84L113,83L113,81L110,79L110,78L109,77L107,77L106,75L103,73L102,71L100,71L96,71L94,70L89,68L87,67L83,66L80,67L76,66L73,65L71,65L71,67L70,67L67,67L65,68L63,68L62,67L64,65L66,64L65,64L62,65L61,66L58,68L59,69L57,71L55,72L53,72L52,73L49,74L48,76L45,76L44,76L42,77L40,78L38,78L34,79L34,79L36,78L38,77L40,76L43,76L44,75L47,73L48,73L50,72L50,70L51,69L48,70L48,69L46,70L45,69L44,70L44,69L41,70L40,70L40,68L40,68L39,67L36,67L34,66L33,66L33,64L31,63L32,62L34,61L34,60L36,60L38,60L39,59L41,59L43,58L42,57L41,57L43,56L41,56L39,56L38,57L37,56L33,57L30,56L29,55L26,54L30,53L34,52L36,52L36,53L41,53L39,52L36,51L35,50L32,49L29,48L31,47L35,47L37,46L38,45L40,44L42,43L47,42L49,43L52,41L55,42L57,43L58,42L62,43L62,43L65,44L67,43L72,44L76,44L78,44L81,44L84,45L87,45L91,46L94,47L97,47L99,46L101,45L105,46L108,45L112,44L113,45L115,44L115,43L117,44L120,46L124,44L124,46L126,45L127,45L130,45L134,46L139,47L142,47L144,47L147,48L144,49L148,50L154,49L156,49L158,50L160,49L158,48L160,47L162,47L164,47L166,48L168,49L171,49L174,50L178,49L181,49L181,48L183,48L186,48L186,50L188,49L190,49L191,46L188,45L186,44L186,42L188,40L191,40L194,42L197,44L195,45L199,46ZM146,38L145,39L150,38L153,39L156,38L158,39L160,41L161,40L159,38L161,37L163,38L166,38L167,41L168,42L172,43L176,44L175,45L172,46L173,46L172,47L168,47L164,46L162,46L158,47L151,48L148,48L147,47L144,46L142,46L139,44L141,44L144,44L147,44L150,44L146,43L141,43L138,43L137,42L142,42L138,42L135,41L136,39L138,38L144,37L146,38ZM168,37L166,38L162,37L163,36L166,36L168,37ZM230,38L231,38L228,38L226,38L223,38L223,38L220,37L220,36L221,36L226,36L230,38ZM208,37L209,39L211,37L217,36L221,38L221,40L225,39L227,38L232,40L235,40L235,42L240,41L242,42L247,43L249,44L251,46L247,47L252,49L256,49L259,51L263,51L262,53L258,56L255,55L252,52L249,53L249,54L251,55L254,56L255,57L256,59L256,61L253,60L247,58L250,60L253,62L253,62L247,62L242,60L240,59L240,58L237,57L234,56L234,57L227,57L225,56L227,55L231,55L236,54L235,54L236,53L239,50L238,50L237,49L234,48L229,47L231,46L228,45L226,45L224,44L223,45L219,45L211,44L206,44L203,44L201,43L203,42L200,42L200,40L201,38L204,37L209,36L208,37ZM177,36L180,36L184,36L184,37L182,38L186,39L185,41L181,42L179,41L178,41L172,39L172,38L177,38L174,37L177,36ZM719,37L716,37L711,37L711,37L713,36L716,36L719,37L719,37ZM193,38L190,40L188,40L187,38L187,37L188,36L190,35L195,35L199,36L196,38L193,38ZM132,41L126,42L125,42L120,40L121,40L123,38L125,36L122,35L130,35L133,35L139,35L141,36L143,37L140,37L135,39L132,40L132,41ZM735,33L732,34L729,34L725,33L725,32L729,33L735,33ZM192,33L191,34L188,34L185,34L186,32L189,32L191,33L192,33ZM722,32L721,34L712,34L709,34L704,33L706,31L708,31L714,31L722,32ZM181,30L183,30L183,32L182,33L178,34L176,33L176,32L172,32L172,30L174,30L178,30L181,30L181,30ZM160,31L160,32L162,31L165,31L165,32L164,33L156,34L151,35L147,35L147,34L152,33L142,33L138,33L141,31L144,30L150,31L154,32L158,32L154,30L156,29L159,30L160,31ZM528,43L526,43L519,43L519,42L515,41L514,40L517,40L516,38L521,36L519,36L524,34L524,33L529,32L536,31L543,30L547,29L552,29L553,30L552,31L544,32L537,33L530,35L527,37L523,39L524,41L528,43ZM190,29L192,29L196,29L198,30L198,31L200,31L202,32L205,32L208,32L212,32L216,32L220,32L222,33L223,34L221,34L218,35L215,34L209,35L204,35L200,34L195,34L194,32L194,31L191,30L187,30L184,29L185,28L190,29ZM142,28L142,29L140,30L138,30L134,31L130,31L127,31L131,29L135,28L139,28L142,28ZM192,28L190,28L186,28L186,27L190,27L192,28L192,28ZM155,27L151,28L148,27L150,27L153,26L156,27L155,27ZM455,27L450,28L446,27L448,27L446,26L451,26L452,26L455,27ZM156,25L154,26L150,26L150,25L152,25L153,25L156,25ZM187,26L184,27L182,26L181,26L181,25L184,25L185,25L188,26L187,26ZM178,26L178,27L175,27L171,26L166,26L168,25L166,25L166,24L170,24L176,25L178,26ZM634,26L621,27L625,24L627,24L628,24L634,25L634,26ZM441,23L448,24L442,25L441,27L439,28L438,29L435,29L431,28L433,27L429,27L425,25L423,23L429,22L430,23L434,23L434,22L438,22L441,23ZM456,21L461,22L458,23L451,24L445,23L444,23L441,22L439,22L446,21L449,21L451,21L456,21ZM514,21L511,21L509,22L508,22L506,22L503,22L505,21L500,21L504,20L507,20L508,21L509,20L511,20L514,21L514,21ZM622,25L617,25L611,24L607,24L606,22L603,22L608,20L613,19L618,21L623,23L622,25ZM207,23L209,24L206,24L202,26L198,26L194,26L191,25L191,24L193,24L189,24L186,23L185,22L187,21L188,20L190,20L190,20L195,19L198,21L201,21L205,22L207,23ZM248,15L254,16L258,16L263,16L262,17L257,18L252,18L250,19L254,19L249,20L246,21L242,23L237,23L236,24L229,24L232,24L231,24L232,26L230,26L227,27L226,28L223,28L223,29L227,29L227,29L221,31L215,30L209,30L205,30L201,30L201,29L205,28L204,27L205,27L211,28L208,26L204,26L206,25L210,24L211,24L208,23L207,22L213,22L215,22L218,21L213,21L205,21L201,20L200,19L197,19L196,18L200,18L202,18L207,17L210,16L213,16L215,17L217,16L220,16L224,15L231,15L232,15L238,15L243,15L248,15ZM340,14L354,16L350,17L341,17L329,17L330,18L338,18L345,18L349,18L351,18L348,20L354,19L365,18L372,18L373,19L364,21L363,21L356,22L361,22L358,24L356,25L356,28L359,29L356,29L352,30L356,31L356,33L354,33L357,35L352,35L355,36L354,37L351,37L348,37L350,39L350,40L346,39L345,39L348,40L351,41L352,43L348,43L346,42L343,41L344,43L341,44L347,44L350,44L344,46L338,48L332,49L329,49L327,50L324,52L319,53L318,54L315,54L312,54L310,56L310,58L308,59L305,61L306,62L305,64L304,66L300,67L297,65L293,65L291,64L289,61L285,59L284,57L284,55L281,53L282,52L280,51L282,48L286,47L286,46L287,45L284,45L283,46L281,46L278,45L278,44L279,43L281,43L286,43L282,42L280,41L278,41L276,41L278,39L277,38L275,36L273,34L270,33L270,32L264,31L259,31L253,31L248,31L245,30L241,29L247,28L252,28L242,28L237,27L237,26L246,25L254,24L255,23L249,22L251,21L258,20L262,19L261,18L266,18L273,17L280,17L282,18L288,17L293,18L296,18L301,18L296,17L296,16L304,15L311,15L314,14L322,14L340,14Z" />
</svg>